<svg width="325" height="55" viewBox="0 0 325 55" fill="none" xmlns="http://www.w3.org/2000/svg">
<path d="M0 18.0089V55H305.41L325 36.0177V0H18.5858L0 18.0089Z" fill="#EC732E"/>
<path d="M94.125 27.5781C94.125 29.4219 93.9792 31.0677 93.6875 32.5156C93.4062 33.9635 92.9479 35.1927 92.3125 36.2031C91.6875 37.2135 90.8646 37.9844 89.8438 38.5156C88.8229 39.0469 87.5833 39.3125 86.125 39.3125C84.2917 39.3125 82.7865 38.849 81.6094 37.9219C80.4323 36.9844 79.5625 35.6406 79 33.8906C78.4375 32.1302 78.1562 30.026 78.1562 27.5781C78.1562 25.1094 78.4115 23 78.9219 21.25C79.4427 19.4896 80.2865 18.1406 81.4531 17.2031C82.6198 16.2656 84.1771 15.7969 86.125 15.7969C87.9479 15.7969 89.4479 16.2656 90.625 17.2031C91.8125 18.1302 92.6927 19.474 93.2656 21.2344C93.8385 22.9844 94.125 25.099 94.125 27.5781ZM82.9531 27.5781C82.9531 29.3177 83.0469 30.7708 83.2344 31.9375C83.4323 33.0938 83.7604 33.9635 84.2188 34.5469C84.6771 35.1302 85.3125 35.4219 86.125 35.4219C86.9271 35.4219 87.5573 35.1354 88.0156 34.5625C88.4844 33.9792 88.8177 33.1094 89.0156 31.9531C89.2135 30.7865 89.3125 29.3281 89.3125 27.5781C89.3125 25.8385 89.2135 24.3854 89.0156 23.2188C88.8177 22.0521 88.4844 21.1771 88.0156 20.5938C87.5573 20 86.9271 19.7031 86.125 19.7031C85.3125 19.7031 84.6771 20 84.2188 20.5938C83.7604 21.1771 83.4323 22.0521 83.2344 23.2188C83.0469 24.3854 82.9531 25.8385 82.9531 27.5781ZM104.469 15.8594C105.781 15.8594 106.99 16.0625 108.094 16.4688C109.208 16.875 110.099 17.4896 110.766 18.3125C111.432 19.125 111.766 20.1458 111.766 21.375C111.766 22.2917 111.583 23.0938 111.219 23.7812C110.865 24.4688 110.38 25.0729 109.766 25.5938C109.151 26.1042 108.453 26.5521 107.672 26.9375C108.484 27.3646 109.255 27.8646 109.984 28.4375C110.714 29 111.307 29.6615 111.766 30.4219C112.234 31.1823 112.469 32.0677 112.469 33.0781C112.469 34.349 112.13 35.4531 111.453 36.3906C110.776 37.3177 109.839 38.0365 108.641 38.5469C107.443 39.0573 106.052 39.3125 104.469 39.3125C102.76 39.3125 101.307 39.0677 100.109 38.5781C98.9115 38.0885 98 37.3906 97.375 36.4844C96.75 35.5677 96.4375 34.474 96.4375 33.2031C96.4375 32.1615 96.6302 31.2552 97.0156 30.4844C97.4115 29.7135 97.9427 29.0521 98.6094 28.5C99.276 27.9375 100.01 27.4583 100.812 27.0625C100.135 26.6354 99.5156 26.151 98.9531 25.6094C98.401 25.0677 97.9583 24.4479 97.625 23.75C97.3021 23.0521 97.1406 22.25 97.1406 21.3438C97.1406 20.1354 97.4792 19.125 98.1562 18.3125C98.8438 17.5 99.7448 16.8906 100.859 16.4844C101.974 16.0677 103.177 15.8594 104.469 15.8594ZM100.906 32.9219C100.906 33.7448 101.198 34.4271 101.781 34.9688C102.375 35.5 103.25 35.7656 104.406 35.7656C105.604 35.7656 106.5 35.5104 107.094 35C107.688 34.4792 107.984 33.7969 107.984 32.9531C107.984 32.3698 107.812 31.8594 107.469 31.4219C107.135 30.9844 106.714 30.5938 106.203 30.25C105.693 29.8958 105.177 29.5677 104.656 29.2656L104.234 29.0469C103.568 29.349 102.984 29.6875 102.484 30.0625C101.995 30.4375 101.609 30.8594 101.328 31.3281C101.047 31.7969 100.906 32.3281 100.906 32.9219ZM104.438 19.3906C103.646 19.3906 102.99 19.5938 102.469 20C101.948 20.4062 101.688 20.9792 101.688 21.7188C101.688 22.2396 101.812 22.6979 102.062 23.0938C102.323 23.4792 102.661 23.8177 103.078 24.1094C103.505 24.401 103.969 24.6719 104.469 24.9219C104.948 24.6927 105.396 24.4375 105.812 24.1562C106.229 23.875 106.568 23.5365 106.828 23.1406C107.089 22.7448 107.219 22.2708 107.219 21.7188C107.219 20.9792 106.953 20.4062 106.422 20C105.901 19.5938 105.24 19.3906 104.438 19.3906ZM130.75 27.5781C130.75 29.4219 130.604 31.0677 130.312 32.5156C130.031 33.9635 129.573 35.1927 128.938 36.2031C128.312 37.2135 127.49 37.9844 126.469 38.5156C125.448 39.0469 124.208 39.3125 122.75 39.3125C120.917 39.3125 119.411 38.849 118.234 37.9219C117.057 36.9844 116.188 35.6406 115.625 33.8906C115.062 32.1302 114.781 30.026 114.781 27.5781C114.781 25.1094 115.036 23 115.547 21.25C116.068 19.4896 116.911 18.1406 118.078 17.2031C119.245 16.2656 120.802 15.7969 122.75 15.7969C124.573 15.7969 126.073 16.2656 127.25 17.2031C128.438 18.1302 129.318 19.474 129.891 21.2344C130.464 22.9844 130.75 25.099 130.75 27.5781ZM119.578 27.5781C119.578 29.3177 119.672 30.7708 119.859 31.9375C120.057 33.0938 120.385 33.9635 120.844 34.5469C121.302 35.1302 121.938 35.4219 122.75 35.4219C123.552 35.4219 124.182 35.1354 124.641 34.5625C125.109 33.9792 125.443 33.1094 125.641 31.9531C125.839 30.7865 125.938 29.3281 125.938 27.5781C125.938 25.8385 125.839 24.3854 125.641 23.2188C125.443 22.0521 125.109 21.1771 124.641 20.5938C124.182 20 123.552 19.7031 122.75 19.7031C121.938 19.7031 121.302 20 120.844 20.5938C120.385 21.1771 120.057 22.0521 119.859 23.2188C119.672 24.3854 119.578 25.8385 119.578 27.5781ZM149.062 27.5781C149.062 29.4219 148.917 31.0677 148.625 32.5156C148.344 33.9635 147.885 35.1927 147.25 36.2031C146.625 37.2135 145.802 37.9844 144.781 38.5156C143.76 39.0469 142.521 39.3125 141.062 39.3125C139.229 39.3125 137.724 38.849 136.547 37.9219C135.37 36.9844 134.5 35.6406 133.938 33.8906C133.375 32.1302 133.094 30.026 133.094 27.5781C133.094 25.1094 133.349 23 133.859 21.25C134.38 19.4896 135.224 18.1406 136.391 17.2031C137.557 16.2656 139.115 15.7969 141.062 15.7969C142.885 15.7969 144.385 16.2656 145.562 17.2031C146.75 18.1302 147.63 19.474 148.203 21.2344C148.776 22.9844 149.062 25.099 149.062 27.5781ZM137.891 27.5781C137.891 29.3177 137.984 30.7708 138.172 31.9375C138.37 33.0938 138.698 33.9635 139.156 34.5469C139.615 35.1302 140.25 35.4219 141.062 35.4219C141.865 35.4219 142.495 35.1354 142.953 34.5625C143.422 33.9792 143.755 33.1094 143.953 31.9531C144.151 30.7865 144.25 29.3281 144.25 27.5781C144.25 25.8385 144.151 24.3854 143.953 23.2188C143.755 22.0521 143.422 21.1771 142.953 20.5938C142.495 20 141.865 19.7031 141.062 19.7031C140.25 19.7031 139.615 20 139.156 20.5938C138.698 21.1771 138.37 22.0521 138.172 23.2188C137.984 24.3854 137.891 25.8385 137.891 27.5781ZM168.156 24.4062C169.552 24.4062 170.792 24.6719 171.875 25.2031C172.969 25.7344 173.828 26.5156 174.453 27.5469C175.078 28.5781 175.391 29.849 175.391 31.3594C175.391 33.0052 175.047 34.4271 174.359 35.625C173.682 36.8125 172.667 37.724 171.312 38.3594C169.969 38.9948 168.292 39.3125 166.281 39.3125C165.083 39.3125 163.953 39.2083 162.891 39C161.839 38.8021 160.917 38.4948 160.125 38.0781V33.9062C160.917 34.3229 161.865 34.6771 162.969 34.9688C164.083 35.25 165.13 35.3906 166.109 35.3906C167.068 35.3906 167.875 35.2656 168.531 35.0156C169.188 34.7552 169.682 34.3594 170.016 33.8281C170.359 33.2865 170.531 32.599 170.531 31.7656C170.531 30.651 170.156 29.7969 169.406 29.2031C168.656 28.6094 167.505 28.3125 165.953 28.3125C165.359 28.3125 164.74 28.3698 164.094 28.4844C163.458 28.599 162.927 28.7135 162.5 28.8281L160.578 27.7969L161.438 16.1562H173.828V20.25H165.672L165.25 24.7344C165.604 24.6615 165.99 24.5885 166.406 24.5156C166.823 24.4427 167.406 24.4062 168.156 24.4062ZM194.641 34.2656H191.891V39H187.172V34.2656H177.422V30.9062L187.438 16.1562H191.891V30.5156H194.641V34.2656ZM187.172 30.5156V26.6406C187.172 26.276 187.177 25.8438 187.188 25.3438C187.208 24.8438 187.229 24.3438 187.25 23.8438C187.271 23.3438 187.292 22.901 187.312 22.5156C187.344 22.1198 187.365 21.8438 187.375 21.6875H187.25C187.052 22.1146 186.844 22.5312 186.625 22.9375C186.406 23.3333 186.151 23.75 185.859 24.1875L181.672 30.5156H187.172ZM212.312 27.5781C212.312 29.4219 212.167 31.0677 211.875 32.5156C211.594 33.9635 211.135 35.1927 210.5 36.2031C209.875 37.2135 209.052 37.9844 208.031 38.5156C207.01 39.0469 205.771 39.3125 204.312 39.3125C202.479 39.3125 200.974 38.849 199.797 37.9219C198.62 36.9844 197.75 35.6406 197.188 33.8906C196.625 32.1302 196.344 30.026 196.344 27.5781C196.344 25.1094 196.599 23 197.109 21.25C197.63 19.4896 198.474 18.1406 199.641 17.2031C200.807 16.2656 202.365 15.7969 204.312 15.7969C206.135 15.7969 207.635 16.2656 208.812 17.2031C210 18.1302 210.88 19.474 211.453 21.2344C212.026 22.9844 212.312 25.099 212.312 27.5781ZM201.141 27.5781C201.141 29.3177 201.234 30.7708 201.422 31.9375C201.62 33.0938 201.948 33.9635 202.406 34.5469C202.865 35.1302 203.5 35.4219 204.312 35.4219C205.115 35.4219 205.745 35.1354 206.203 34.5625C206.672 33.9792 207.005 33.1094 207.203 31.9531C207.401 30.7865 207.5 29.3281 207.5 27.5781C207.5 25.8385 207.401 24.3854 207.203 23.2188C207.005 22.0521 206.672 21.1771 206.203 20.5938C205.745 20 205.115 19.7031 204.312 19.7031C203.5 19.7031 202.865 20 202.406 20.5938C201.948 21.1771 201.62 22.0521 201.422 23.2188C201.234 24.3854 201.141 25.8385 201.141 27.5781ZM238.938 27.5781C238.938 29.4219 238.792 31.0677 238.5 32.5156C238.219 33.9635 237.76 35.1927 237.125 36.2031C236.5 37.2135 235.677 37.9844 234.656 38.5156C233.635 39.0469 232.396 39.3125 230.938 39.3125C229.104 39.3125 227.599 38.849 226.422 37.9219C225.245 36.9844 224.375 35.6406 223.812 33.8906C223.25 32.1302 222.969 30.026 222.969 27.5781C222.969 25.1094 223.224 23 223.734 21.25C224.255 19.4896 225.099 18.1406 226.266 17.2031C227.432 16.2656 228.99 15.7969 230.938 15.7969C232.76 15.7969 234.26 16.2656 235.438 17.2031C236.625 18.1302 237.505 19.474 238.078 21.2344C238.651 22.9844 238.938 25.099 238.938 27.5781ZM227.766 27.5781C227.766 29.3177 227.859 30.7708 228.047 31.9375C228.245 33.0938 228.573 33.9635 229.031 34.5469C229.49 35.1302 230.125 35.4219 230.938 35.4219C231.74 35.4219 232.37 35.1354 232.828 34.5625C233.297 33.9792 233.63 33.1094 233.828 31.9531C234.026 30.7865 234.125 29.3281 234.125 27.5781C234.125 25.8385 234.026 24.3854 233.828 23.2188C233.63 22.0521 233.297 21.1771 232.828 20.5938C232.37 20 231.74 19.7031 230.938 19.7031C230.125 19.7031 229.49 20 229.031 20.5938C228.573 21.1771 228.245 22.0521 228.047 23.2188C227.859 24.3854 227.766 25.8385 227.766 27.5781ZM257.25 27.5781C257.25 29.4219 257.104 31.0677 256.812 32.5156C256.531 33.9635 256.073 35.1927 255.438 36.2031C254.812 37.2135 253.99 37.9844 252.969 38.5156C251.948 39.0469 250.708 39.3125 249.25 39.3125C247.417 39.3125 245.911 38.849 244.734 37.9219C243.557 36.9844 242.688 35.6406 242.125 33.8906C241.562 32.1302 241.281 30.026 241.281 27.5781C241.281 25.1094 241.536 23 242.047 21.25C242.568 19.4896 243.411 18.1406 244.578 17.2031C245.745 16.2656 247.302 15.7969 249.25 15.7969C251.073 15.7969 252.573 16.2656 253.75 17.2031C254.938 18.1302 255.818 19.474 256.391 21.2344C256.964 22.9844 257.25 25.099 257.25 27.5781ZM246.078 27.5781C246.078 29.3177 246.172 30.7708 246.359 31.9375C246.557 33.0938 246.885 33.9635 247.344 34.5469C247.802 35.1302 248.438 35.4219 249.25 35.4219C250.052 35.4219 250.682 35.1354 251.141 34.5625C251.609 33.9792 251.943 33.1094 252.141 31.9531C252.339 30.7865 252.438 29.3281 252.438 27.5781C252.438 25.8385 252.339 24.3854 252.141 23.2188C251.943 22.0521 251.609 21.1771 251.141 20.5938C250.682 20 250.052 19.7031 249.25 19.7031C248.438 19.7031 247.802 20 247.344 20.5938C246.885 21.1771 246.557 22.0521 246.359 23.2188C246.172 24.3854 246.078 25.8385 246.078 27.5781ZM261.984 39L270.562 20.2188H259.297V16.1562H275.688V19.1875L267.047 39H261.984ZM293.875 27.5781C293.875 29.4219 293.729 31.0677 293.438 32.5156C293.156 33.9635 292.698 35.1927 292.062 36.2031C291.438 37.2135 290.615 37.9844 289.594 38.5156C288.573 39.0469 287.333 39.3125 285.875 39.3125C284.042 39.3125 282.536 38.849 281.359 37.9219C280.182 36.9844 279.312 35.6406 278.75 33.8906C278.188 32.1302 277.906 30.026 277.906 27.5781C277.906 25.1094 278.161 23 278.672 21.25C279.193 19.4896 280.036 18.1406 281.203 17.2031C282.37 16.2656 283.927 15.7969 285.875 15.7969C287.698 15.7969 289.198 16.2656 290.375 17.2031C291.562 18.1302 292.443 19.474 293.016 21.2344C293.589 22.9844 293.875 25.099 293.875 27.5781ZM282.703 27.5781C282.703 29.3177 282.797 30.7708 282.984 31.9375C283.182 33.0938 283.51 33.9635 283.969 34.5469C284.427 35.1302 285.062 35.4219 285.875 35.4219C286.677 35.4219 287.307 35.1354 287.766 34.5625C288.234 33.9792 288.568 33.1094 288.766 31.9531C288.964 30.7865 289.062 29.3281 289.062 27.5781C289.062 25.8385 288.964 24.3854 288.766 23.2188C288.568 22.0521 288.234 21.1771 287.766 20.5938C287.307 20 286.677 19.7031 285.875 19.7031C285.062 19.7031 284.427 20 283.969 20.5938C283.51 21.1771 283.182 22.0521 282.984 23.2188C282.797 24.3854 282.703 25.8385 282.703 27.5781Z" fill="white"/>
<g clip-path="url(#clip0_219_54)">
<path fill-rule="evenodd" clip-rule="evenodd" d="M24.5343 12.9582C24.8624 12.6306 25.2563 12.3765 25.6901 12.2127C26.1238 12.0489 26.5874 11.9791 27.0501 12.008C27.5128 12.0369 27.9641 12.1638 28.3741 12.3803C28.784 12.5968 29.1433 12.898 29.4281 13.2638L32.7937 17.5876C33.4106 18.3807 33.6281 19.4138 33.3843 20.3888L32.3587 24.4951C32.306 24.7078 32.3091 24.9305 32.3675 25.1416C32.426 25.3528 32.5379 25.5454 32.6924 25.7007L37.2993 30.3076C37.4548 30.4624 37.6477 30.5745 37.8592 30.633C38.0708 30.6915 38.2938 30.6943 38.5068 30.6413L42.6112 29.6157C43.0924 29.4961 43.5944 29.4871 44.0796 29.5894C44.5648 29.6917 45.0205 29.9026 45.4124 30.2063L49.7362 33.5701C51.2906 34.7795 51.4331 37.0763 50.0418 38.4657L48.1031 40.4045C46.7156 41.792 44.6418 42.4013 42.7087 41.7207C37.7599 39.9818 33.2672 37.149 29.5649 33.4332C25.8494 29.7315 23.0166 25.2394 21.2774 20.2913C20.5987 18.3601 21.2081 16.2845 22.5956 14.897L24.5343 12.9582Z" fill="white"/>
</g>
<path d="M50 35L51.3706 39.4829C51.4249 39.6605 51.6708 39.6746 51.7452 39.5045L53.0926 36.4196C53.1624 36.2597 53.3893 36.2597 53.4591 36.4196L54.8397 39.5804C54.9096 39.7403 55.1364 39.7403 55.2063 39.5804L56.5868 36.4196C56.6567 36.2597 56.8835 36.2597 56.9534 36.4196L58.334 39.5804C58.4038 39.7403 58.6307 39.7403 58.7005 39.5804L60.0811 36.4196C60.1509 36.2597 60.3778 36.2597 60.4476 36.4196L61.8282 39.5804C61.8981 39.7403 62.1249 39.7403 62.1948 39.5804L63.5753 36.4196C63.6452 36.2597 63.872 36.2597 63.9419 36.4196L65.3225 39.5804C65.3923 39.7403 65.6192 39.7403 65.689 39.5804L67.0696 36.4196C67.1394 36.2597 67.3663 36.2597 67.4362 36.4196L69 40" stroke="white" stroke-width="1.5"/>
<defs>
<clipPath id="clip0_219_54">
<rect width="30" height="30" fill="white" transform="translate(21 12)"/>
</clipPath>
</defs>
</svg>
